<mxfile host="app.diagrams.net" modified="2020-12-18T06:42:53.563Z" agent="5.0 (Windows NT 6.1; Win64; x64) AppleWebKit/537.36 (KHTML, like Gecko) Chrome/87.0.4280.66 Safari/537.36" etag="bKCHbmpooa0Jxhdaw4YZ" version="14.0.5" type="github">
  <diagram id="lTg99_Vy2ZE7igklID2C" name="Page-1">
    <mxGraphModel dx="1422" dy="1902" grid="1" gridSize="10" guides="1" tooltips="1" connect="1" arrows="1" fold="1" page="1" pageScale="1" pageWidth="850" pageHeight="1100" math="0" shadow="0">
      <root>
        <mxCell id="0" />
        <mxCell id="1" parent="0" />
        <mxCell id="UTjn_2qCCi6-IETB0lyl-1" value="&lt;font style=&quot;font-size: 18px&quot;&gt;START&lt;/font&gt;" style="ellipse;whiteSpace=wrap;html=1;aspect=fixed;" vertex="1" parent="1">
          <mxGeometry x="80" y="110" width="80" height="80" as="geometry" />
        </mxCell>
        <mxCell id="UTjn_2qCCi6-IETB0lyl-2" value="&lt;font style=&quot;font-size: 18px&quot;&gt;RX Mode&lt;/font&gt;" style="rounded=1;whiteSpace=wrap;html=1;" vertex="1" parent="1">
          <mxGeometry x="230" y="120" width="120" height="60" as="geometry" />
        </mxCell>
        <mxCell id="UTjn_2qCCi6-IETB0lyl-3" value="" style="endArrow=none;html=1;exitX=1;exitY=0.5;exitDx=0;exitDy=0;entryX=0;entryY=0.5;entryDx=0;entryDy=0;" edge="1" parent="1" source="UTjn_2qCCi6-IETB0lyl-1" target="UTjn_2qCCi6-IETB0lyl-2">
          <mxGeometry width="50" height="50" relative="1" as="geometry">
            <mxPoint x="180" y="170" as="sourcePoint" />
            <mxPoint x="230" y="120" as="targetPoint" />
          </mxGeometry>
        </mxCell>
        <mxCell id="UTjn_2qCCi6-IETB0lyl-5" value="&lt;font style=&quot;font-size: 12px&quot;&gt;Is CH = Ch524?&lt;/font&gt;" style="rhombus;whiteSpace=wrap;html=1;" vertex="1" parent="1">
          <mxGeometry x="425" y="110" width="80" height="80" as="geometry" />
        </mxCell>
        <mxCell id="UTjn_2qCCi6-IETB0lyl-6" value="&lt;font style=&quot;font-size: 18px&quot;&gt;Push CH to Stack&lt;/font&gt;" style="rounded=1;whiteSpace=wrap;html=1;" vertex="1" parent="1">
          <mxGeometry x="590" y="120" width="120" height="60" as="geometry" />
        </mxCell>
        <mxCell id="UTjn_2qCCi6-IETB0lyl-7" value="" style="endArrow=classic;html=1;exitX=1;exitY=0.5;exitDx=0;exitDy=0;entryX=0;entryY=0.5;entryDx=0;entryDy=0;" edge="1" parent="1" source="UTjn_2qCCi6-IETB0lyl-2" target="UTjn_2qCCi6-IETB0lyl-5">
          <mxGeometry width="50" height="50" relative="1" as="geometry">
            <mxPoint x="350" y="180" as="sourcePoint" />
            <mxPoint x="400" y="130" as="targetPoint" />
          </mxGeometry>
        </mxCell>
        <mxCell id="UTjn_2qCCi6-IETB0lyl-9" value="" style="endArrow=classic;html=1;exitX=1;exitY=0.5;exitDx=0;exitDy=0;entryX=0;entryY=0.5;entryDx=0;entryDy=0;" edge="1" parent="1" source="UTjn_2qCCi6-IETB0lyl-5" target="UTjn_2qCCi6-IETB0lyl-6">
          <mxGeometry width="50" height="50" relative="1" as="geometry">
            <mxPoint x="520" y="170" as="sourcePoint" />
            <mxPoint x="580" y="150" as="targetPoint" />
          </mxGeometry>
        </mxCell>
        <mxCell id="UTjn_2qCCi6-IETB0lyl-10" value="" style="endArrow=classic;html=1;entryX=0.5;entryY=0;entryDx=0;entryDy=0;exitX=0.5;exitY=1;exitDx=0;exitDy=0;" edge="1" parent="1" source="UTjn_2qCCi6-IETB0lyl-5">
          <mxGeometry width="50" height="50" relative="1" as="geometry">
            <mxPoint x="440" y="260" as="sourcePoint" />
            <mxPoint x="465" y="270" as="targetPoint" />
          </mxGeometry>
        </mxCell>
        <mxCell id="UTjn_2qCCi6-IETB0lyl-11" value="&lt;font style=&quot;font-size: 18px&quot;&gt;N&lt;/font&gt;" style="text;html=1;strokeColor=none;fillColor=none;align=center;verticalAlign=middle;whiteSpace=wrap;rounded=0;" vertex="1" parent="1">
          <mxGeometry x="525" y="120" width="40" height="20" as="geometry" />
        </mxCell>
        <mxCell id="UTjn_2qCCi6-IETB0lyl-12" value="&lt;font style=&quot;font-size: 18px&quot;&gt;Y&lt;/font&gt;" style="text;html=1;strokeColor=none;fillColor=none;align=center;verticalAlign=middle;whiteSpace=wrap;rounded=0;" vertex="1" parent="1">
          <mxGeometry x="470" y="220" width="40" height="20" as="geometry" />
        </mxCell>
        <mxCell id="UTjn_2qCCi6-IETB0lyl-13" value="Is Stack empty?" style="rhombus;whiteSpace=wrap;html=1;" vertex="1" parent="1">
          <mxGeometry x="425" y="270" width="80" height="80" as="geometry" />
        </mxCell>
        <mxCell id="UTjn_2qCCi6-IETB0lyl-14" value="" style="endArrow=classic;html=1;entryX=0.5;entryY=1;entryDx=0;entryDy=0;exitX=0;exitY=0.5;exitDx=0;exitDy=0;" edge="1" parent="1" source="UTjn_2qCCi6-IETB0lyl-13" target="UTjn_2qCCi6-IETB0lyl-2">
          <mxGeometry width="50" height="50" relative="1" as="geometry">
            <mxPoint x="420" y="310" as="sourcePoint" />
            <mxPoint x="310" y="260" as="targetPoint" />
            <Array as="points">
              <mxPoint x="290" y="310" />
            </Array>
          </mxGeometry>
        </mxCell>
        <mxCell id="UTjn_2qCCi6-IETB0lyl-15" value="&lt;font style=&quot;font-size: 18px&quot;&gt;Y&lt;/font&gt;" style="text;html=1;strokeColor=none;fillColor=none;align=center;verticalAlign=middle;whiteSpace=wrap;rounded=0;" vertex="1" parent="1">
          <mxGeometry x="350" y="280" width="40" height="20" as="geometry" />
        </mxCell>
        <mxCell id="UTjn_2qCCi6-IETB0lyl-17" value="&lt;font style=&quot;font-size: 18px&quot;&gt;&lt;b&gt;CH524 Key Press&lt;/b&gt;&lt;/font&gt;" style="shape=process;whiteSpace=wrap;html=1;backgroundOutline=1;" vertex="1" parent="1">
          <mxGeometry x="405" y="-30" width="120" height="60" as="geometry" />
        </mxCell>
        <mxCell id="UTjn_2qCCi6-IETB0lyl-18" value="&lt;font style=&quot;font-size: 18px&quot;&gt;SWAP CH / Ch524&lt;/font&gt;" style="rounded=1;whiteSpace=wrap;html=1;" vertex="1" parent="1">
          <mxGeometry x="405" y="530" width="120" height="60" as="geometry" />
        </mxCell>
        <mxCell id="UTjn_2qCCi6-IETB0lyl-19" value="&lt;font style=&quot;font-size: 18px&quot;&gt;POP CH from Stack&lt;/font&gt;" style="rounded=1;whiteSpace=wrap;html=1;" vertex="1" parent="1">
          <mxGeometry x="405" y="410" width="120" height="60" as="geometry" />
        </mxCell>
        <mxCell id="UTjn_2qCCi6-IETB0lyl-20" value="" style="endArrow=classic;html=1;exitX=0.5;exitY=1;exitDx=0;exitDy=0;entryX=0.5;entryY=0;entryDx=0;entryDy=0;" edge="1" parent="1" source="UTjn_2qCCi6-IETB0lyl-13" target="UTjn_2qCCi6-IETB0lyl-19">
          <mxGeometry width="50" height="50" relative="1" as="geometry">
            <mxPoint x="570" y="390" as="sourcePoint" />
            <mxPoint x="620" y="340" as="targetPoint" />
          </mxGeometry>
        </mxCell>
        <mxCell id="UTjn_2qCCi6-IETB0lyl-21" value="" style="endArrow=classic;html=1;entryX=0.5;entryY=0;entryDx=0;entryDy=0;exitX=0.5;exitY=1;exitDx=0;exitDy=0;" edge="1" parent="1" source="UTjn_2qCCi6-IETB0lyl-19" target="UTjn_2qCCi6-IETB0lyl-18">
          <mxGeometry width="50" height="50" relative="1" as="geometry">
            <mxPoint x="440" y="530" as="sourcePoint" />
            <mxPoint x="490" y="480" as="targetPoint" />
          </mxGeometry>
        </mxCell>
        <mxCell id="UTjn_2qCCi6-IETB0lyl-22" value="" style="endArrow=classic;html=1;exitX=0.5;exitY=1;exitDx=0;exitDy=0;entryX=1;entryY=0.5;entryDx=0;entryDy=0;" edge="1" parent="1" source="UTjn_2qCCi6-IETB0lyl-6" target="UTjn_2qCCi6-IETB0lyl-18">
          <mxGeometry width="50" height="50" relative="1" as="geometry">
            <mxPoint x="650" y="460" as="sourcePoint" />
            <mxPoint x="700" y="410" as="targetPoint" />
            <Array as="points">
              <mxPoint x="650" y="560" />
            </Array>
          </mxGeometry>
        </mxCell>
        <mxCell id="UTjn_2qCCi6-IETB0lyl-23" value="" style="endArrow=classic;html=1;exitX=0;exitY=0.5;exitDx=0;exitDy=0;entryX=0.25;entryY=1;entryDx=0;entryDy=0;" edge="1" parent="1" source="UTjn_2qCCi6-IETB0lyl-18" target="UTjn_2qCCi6-IETB0lyl-2">
          <mxGeometry width="50" height="50" relative="1" as="geometry">
            <mxPoint x="290" y="580" as="sourcePoint" />
            <mxPoint x="290" y="190" as="targetPoint" />
            <Array as="points">
              <mxPoint x="260" y="560" />
            </Array>
          </mxGeometry>
        </mxCell>
        <mxCell id="UTjn_2qCCi6-IETB0lyl-24" value="&lt;font style=&quot;font-size: 18px&quot;&gt;&lt;b&gt;Alert Key Press&lt;/b&gt;&lt;/font&gt;" style="shape=process;whiteSpace=wrap;html=1;backgroundOutline=1;" vertex="1" parent="1">
          <mxGeometry x="405" y="760" width="120" height="60" as="geometry" />
        </mxCell>
        <mxCell id="UTjn_2qCCi6-IETB0lyl-25" value="&lt;font style=&quot;font-size: 18px&quot;&gt;N&lt;/font&gt;" style="text;html=1;strokeColor=none;fillColor=none;align=center;verticalAlign=middle;whiteSpace=wrap;rounded=0;" vertex="1" parent="1">
          <mxGeometry x="460" y="370" width="40" height="20" as="geometry" />
        </mxCell>
        <mxCell id="UTjn_2qCCi6-IETB0lyl-26" value="&lt;font style=&quot;font-size: 18px&quot;&gt;START&lt;/font&gt;" style="ellipse;whiteSpace=wrap;html=1;aspect=fixed;" vertex="1" parent="1">
          <mxGeometry x="220" y="910" width="80" height="80" as="geometry" />
        </mxCell>
        <mxCell id="UTjn_2qCCi6-IETB0lyl-28" value="Is CH = Ch524?" style="rhombus;whiteSpace=wrap;html=1;" vertex="1" parent="1">
          <mxGeometry x="370" y="1140" width="80" height="80" as="geometry" />
        </mxCell>
        <mxCell id="UTjn_2qCCi6-IETB0lyl-29" value="Is RX Mode" style="rhombus;whiteSpace=wrap;html=1;" vertex="1" parent="1">
          <mxGeometry x="370" y="1290" width="80" height="80" as="geometry" />
        </mxCell>
        <mxCell id="UTjn_2qCCi6-IETB0lyl-30" value="&lt;font style=&quot;font-size: 18px&quot;&gt;Alert Key press&lt;/font&gt;" style="rounded=1;whiteSpace=wrap;html=1;" vertex="1" parent="1">
          <mxGeometry x="350" y="920" width="120" height="60" as="geometry" />
        </mxCell>
        <mxCell id="UTjn_2qCCi6-IETB0lyl-32" value="" style="endArrow=none;html=1;exitX=1;exitY=0.5;exitDx=0;exitDy=0;entryX=0;entryY=0.5;entryDx=0;entryDy=0;" edge="1" parent="1" source="UTjn_2qCCi6-IETB0lyl-26" target="UTjn_2qCCi6-IETB0lyl-30">
          <mxGeometry width="50" height="50" relative="1" as="geometry">
            <mxPoint x="170" y="890" as="sourcePoint" />
            <mxPoint x="220" y="840" as="targetPoint" />
          </mxGeometry>
        </mxCell>
        <mxCell id="UTjn_2qCCi6-IETB0lyl-33" value="" style="endArrow=classic;html=1;exitX=0.5;exitY=1;exitDx=0;exitDy=0;entryX=0.5;entryY=0;entryDx=0;entryDy=0;" edge="1" parent="1" source="UTjn_2qCCi6-IETB0lyl-30" target="UTjn_2qCCi6-IETB0lyl-28">
          <mxGeometry width="50" height="50" relative="1" as="geometry">
            <mxPoint x="370" y="900" as="sourcePoint" />
            <mxPoint x="420" y="850" as="targetPoint" />
          </mxGeometry>
        </mxCell>
        <mxCell id="UTjn_2qCCi6-IETB0lyl-34" value="" style="endArrow=classic;html=1;entryX=0.5;entryY=0;entryDx=0;entryDy=0;exitX=0.5;exitY=1;exitDx=0;exitDy=0;" edge="1" parent="1" source="UTjn_2qCCi6-IETB0lyl-28" target="UTjn_2qCCi6-IETB0lyl-29">
          <mxGeometry width="50" height="50" relative="1" as="geometry">
            <mxPoint x="510" y="870" as="sourcePoint" />
            <mxPoint x="570" y="840" as="targetPoint" />
          </mxGeometry>
        </mxCell>
        <mxCell id="UTjn_2qCCi6-IETB0lyl-35" value="&lt;font style=&quot;font-size: 18px&quot;&gt;RX Mode&lt;/font&gt;" style="rounded=1;whiteSpace=wrap;html=1;" vertex="1" parent="1">
          <mxGeometry x="200" y="1150" width="120" height="60" as="geometry" />
        </mxCell>
        <mxCell id="UTjn_2qCCi6-IETB0lyl-36" value="" style="endArrow=classic;html=1;entryX=1;entryY=0.5;entryDx=0;entryDy=0;" edge="1" parent="1" source="UTjn_2qCCi6-IETB0lyl-28" target="UTjn_2qCCi6-IETB0lyl-35">
          <mxGeometry width="50" height="50" relative="1" as="geometry">
            <mxPoint x="470" y="960" as="sourcePoint" />
            <mxPoint x="520" y="910" as="targetPoint" />
          </mxGeometry>
        </mxCell>
        <mxCell id="UTjn_2qCCi6-IETB0lyl-37" value="&lt;font style=&quot;font-size: 18px&quot;&gt;N&lt;/font&gt;" style="text;html=1;strokeColor=none;fillColor=none;align=center;verticalAlign=middle;whiteSpace=wrap;rounded=0;" vertex="1" parent="1">
          <mxGeometry x="330" y="1150" width="40" height="20" as="geometry" />
        </mxCell>
        <mxCell id="UTjn_2qCCi6-IETB0lyl-38" value="&lt;font style=&quot;font-size: 18px&quot;&gt;Y&lt;/font&gt;" style="text;html=1;strokeColor=none;fillColor=none;align=center;verticalAlign=middle;whiteSpace=wrap;rounded=0;" vertex="1" parent="1">
          <mxGeometry x="410" y="1240" width="40" height="20" as="geometry" />
        </mxCell>
        <mxCell id="UTjn_2qCCi6-IETB0lyl-39" value="" style="endArrow=classic;html=1;entryX=0.5;entryY=1;entryDx=0;entryDy=0;exitX=0.5;exitY=0;exitDx=0;exitDy=0;" edge="1" parent="1" source="UTjn_2qCCi6-IETB0lyl-35" target="UTjn_2qCCi6-IETB0lyl-26">
          <mxGeometry width="50" height="50" relative="1" as="geometry">
            <mxPoint x="120" y="1000" as="sourcePoint" />
            <mxPoint x="140" y="950" as="targetPoint" />
            <Array as="points">
              <mxPoint x="260" y="1120" />
            </Array>
          </mxGeometry>
        </mxCell>
        <mxCell id="UTjn_2qCCi6-IETB0lyl-40" value="Is Alert&lt;br&gt;&amp;nbsp;Mode?" style="rhombus;whiteSpace=wrap;html=1;direction=west;" vertex="1" parent="1">
          <mxGeometry x="220" y="1290" width="80" height="80" as="geometry" />
        </mxCell>
        <mxCell id="UTjn_2qCCi6-IETB0lyl-41" value="" style="endArrow=classic;html=1;exitX=0;exitY=0.5;exitDx=0;exitDy=0;entryX=0;entryY=0.5;entryDx=0;entryDy=0;" edge="1" parent="1" source="UTjn_2qCCi6-IETB0lyl-29" target="UTjn_2qCCi6-IETB0lyl-40">
          <mxGeometry width="50" height="50" relative="1" as="geometry">
            <mxPoint x="650" y="890" as="sourcePoint" />
            <mxPoint x="700" y="840" as="targetPoint" />
          </mxGeometry>
        </mxCell>
        <mxCell id="UTjn_2qCCi6-IETB0lyl-42" value="&lt;font style=&quot;font-size: 18px&quot;&gt;N&lt;/font&gt;" style="text;html=1;strokeColor=none;fillColor=none;align=center;verticalAlign=middle;whiteSpace=wrap;rounded=0;" vertex="1" parent="1">
          <mxGeometry x="320" y="1310" width="40" height="20" as="geometry" />
        </mxCell>
        <mxCell id="UTjn_2qCCi6-IETB0lyl-43" value="Alert Key press &amp;gt; 4s" style="rhombus;whiteSpace=wrap;html=1;" vertex="1" parent="1">
          <mxGeometry x="370" y="1460" width="80" height="80" as="geometry" />
        </mxCell>
        <mxCell id="UTjn_2qCCi6-IETB0lyl-44" value="" style="endArrow=classic;html=1;exitX=0.5;exitY=1;exitDx=0;exitDy=0;" edge="1" parent="1" source="UTjn_2qCCi6-IETB0lyl-29" target="UTjn_2qCCi6-IETB0lyl-43">
          <mxGeometry width="50" height="50" relative="1" as="geometry">
            <mxPoint x="420" y="1430" as="sourcePoint" />
            <mxPoint x="470" y="1380" as="targetPoint" />
          </mxGeometry>
        </mxCell>
        <mxCell id="UTjn_2qCCi6-IETB0lyl-45" value="&lt;font style=&quot;font-size: 18px&quot;&gt;Y&lt;/font&gt;" style="text;html=1;strokeColor=none;fillColor=none;align=center;verticalAlign=middle;whiteSpace=wrap;rounded=0;" vertex="1" parent="1">
          <mxGeometry x="410" y="1410" width="40" height="20" as="geometry" />
        </mxCell>
        <mxCell id="UTjn_2qCCi6-IETB0lyl-46" value="Alert Key press &amp;gt; 5s" style="rhombus;whiteSpace=wrap;html=1;" vertex="1" parent="1">
          <mxGeometry x="70" y="1290" width="80" height="80" as="geometry" />
        </mxCell>
        <mxCell id="UTjn_2qCCi6-IETB0lyl-47" value="" style="endArrow=classic;html=1;exitX=0.5;exitY=1;exitDx=0;exitDy=0;entryX=0.5;entryY=1;entryDx=0;entryDy=0;" edge="1" parent="1" source="UTjn_2qCCi6-IETB0lyl-40" target="UTjn_2qCCi6-IETB0lyl-35">
          <mxGeometry width="50" height="50" relative="1" as="geometry">
            <mxPoint x="290" y="1280" as="sourcePoint" />
            <mxPoint x="340" y="1230" as="targetPoint" />
          </mxGeometry>
        </mxCell>
        <mxCell id="UTjn_2qCCi6-IETB0lyl-48" value="&lt;font style=&quot;font-size: 18px&quot;&gt;N&lt;/font&gt;" style="text;html=1;strokeColor=none;fillColor=none;align=center;verticalAlign=middle;whiteSpace=wrap;rounded=0;" vertex="1" parent="1">
          <mxGeometry x="260" y="1250" width="40" height="20" as="geometry" />
        </mxCell>
        <mxCell id="UTjn_2qCCi6-IETB0lyl-49" value="" style="endArrow=classic;html=1;entryX=1;entryY=0.5;entryDx=0;entryDy=0;exitX=1;exitY=0.5;exitDx=0;exitDy=0;" edge="1" parent="1" source="UTjn_2qCCi6-IETB0lyl-40" target="UTjn_2qCCi6-IETB0lyl-46">
          <mxGeometry width="50" height="50" relative="1" as="geometry">
            <mxPoint x="160" y="1450" as="sourcePoint" />
            <mxPoint x="210" y="1400" as="targetPoint" />
          </mxGeometry>
        </mxCell>
        <mxCell id="UTjn_2qCCi6-IETB0lyl-50" value="&lt;font style=&quot;font-size: 18px&quot;&gt;Y&lt;/font&gt;" style="text;html=1;strokeColor=none;fillColor=none;align=center;verticalAlign=middle;whiteSpace=wrap;rounded=0;" vertex="1" parent="1">
          <mxGeometry x="170" y="1310" width="40" height="20" as="geometry" />
        </mxCell>
        <mxCell id="UTjn_2qCCi6-IETB0lyl-53" value="" style="endArrow=classic;html=1;exitX=0.5;exitY=0;exitDx=0;exitDy=0;entryX=0;entryY=0.75;entryDx=0;entryDy=0;" edge="1" parent="1" source="UTjn_2qCCi6-IETB0lyl-46" target="UTjn_2qCCi6-IETB0lyl-35">
          <mxGeometry width="50" height="50" relative="1" as="geometry">
            <mxPoint x="110" y="1280" as="sourcePoint" />
            <mxPoint x="100" y="1230" as="targetPoint" />
            <Array as="points">
              <mxPoint x="110" y="1195" />
            </Array>
          </mxGeometry>
        </mxCell>
        <mxCell id="UTjn_2qCCi6-IETB0lyl-54" value="&lt;font style=&quot;font-size: 18px&quot;&gt;Y&lt;/font&gt;" style="text;html=1;strokeColor=none;fillColor=none;align=center;verticalAlign=middle;whiteSpace=wrap;rounded=0;" vertex="1" parent="1">
          <mxGeometry x="110" y="1240" width="40" height="20" as="geometry" />
        </mxCell>
        <mxCell id="UTjn_2qCCi6-IETB0lyl-55" value="&lt;font style=&quot;font-size: 18px&quot;&gt;Do nothing&lt;/font&gt;" style="rounded=1;whiteSpace=wrap;html=1;" vertex="1" parent="1">
          <mxGeometry x="50" y="1420" width="120" height="60" as="geometry" />
        </mxCell>
        <mxCell id="UTjn_2qCCi6-IETB0lyl-56" value="" style="endArrow=classic;html=1;exitX=0.5;exitY=1;exitDx=0;exitDy=0;entryX=0.5;entryY=0;entryDx=0;entryDy=0;" edge="1" parent="1" source="UTjn_2qCCi6-IETB0lyl-46" target="UTjn_2qCCi6-IETB0lyl-55">
          <mxGeometry width="50" height="50" relative="1" as="geometry">
            <mxPoint x="150" y="1410" as="sourcePoint" />
            <mxPoint x="200" y="1360" as="targetPoint" />
          </mxGeometry>
        </mxCell>
        <mxCell id="UTjn_2qCCi6-IETB0lyl-57" value="&lt;font style=&quot;font-size: 18px&quot;&gt;N&lt;/font&gt;" style="text;html=1;strokeColor=none;fillColor=none;align=center;verticalAlign=middle;whiteSpace=wrap;rounded=0;" vertex="1" parent="1">
          <mxGeometry x="110" y="1380" width="40" height="20" as="geometry" />
        </mxCell>
        <mxCell id="UTjn_2qCCi6-IETB0lyl-58" value="&lt;font style=&quot;font-size: 18px&quot;&gt;Display Ch524 and Do TX with 2100Hz&lt;/font&gt;" style="rounded=1;whiteSpace=wrap;html=1;" vertex="1" parent="1">
          <mxGeometry x="560" y="1470" width="120" height="60" as="geometry" />
        </mxCell>
        <mxCell id="UTjn_2qCCi6-IETB0lyl-59" value="" style="endArrow=classic;html=1;exitX=1;exitY=0.5;exitDx=0;exitDy=0;entryX=0;entryY=0.5;entryDx=0;entryDy=0;" edge="1" parent="1" source="UTjn_2qCCi6-IETB0lyl-43" target="UTjn_2qCCi6-IETB0lyl-58">
          <mxGeometry width="50" height="50" relative="1" as="geometry">
            <mxPoint x="480" y="1530" as="sourcePoint" />
            <mxPoint x="530" y="1480" as="targetPoint" />
          </mxGeometry>
        </mxCell>
        <mxCell id="UTjn_2qCCi6-IETB0lyl-60" value="&lt;font style=&quot;font-size: 18px&quot;&gt;Y&lt;/font&gt;" style="text;html=1;strokeColor=none;fillColor=none;align=center;verticalAlign=middle;whiteSpace=wrap;rounded=0;" vertex="1" parent="1">
          <mxGeometry x="480" y="1480" width="40" height="20" as="geometry" />
        </mxCell>
        <mxCell id="UTjn_2qCCi6-IETB0lyl-61" value="&lt;font style=&quot;font-size: 18px&quot;&gt;TX Mode&lt;/font&gt;" style="rounded=1;whiteSpace=wrap;html=1;direction=west;" vertex="1" parent="1">
          <mxGeometry x="560" y="1310" width="120" height="60" as="geometry" />
        </mxCell>
        <mxCell id="UTjn_2qCCi6-IETB0lyl-62" value="" style="endArrow=classic;html=1;entryX=0.5;entryY=0;entryDx=0;entryDy=0;exitX=0.5;exitY=0;exitDx=0;exitDy=0;" edge="1" parent="1" source="UTjn_2qCCi6-IETB0lyl-58" target="UTjn_2qCCi6-IETB0lyl-61">
          <mxGeometry width="50" height="50" relative="1" as="geometry">
            <mxPoint x="630" y="1620" as="sourcePoint" />
            <mxPoint x="760" y="1540" as="targetPoint" />
          </mxGeometry>
        </mxCell>
        <mxCell id="UTjn_2qCCi6-IETB0lyl-63" value="Swap Ch524 / EE_EEE display" style="rounded=1;whiteSpace=wrap;html=1;" vertex="1" parent="1">
          <mxGeometry x="350" y="1600" width="120" height="60" as="geometry" />
        </mxCell>
        <mxCell id="UTjn_2qCCi6-IETB0lyl-64" value="" style="endArrow=classic;html=1;exitX=0.5;exitY=1;exitDx=0;exitDy=0;entryX=0.5;entryY=0;entryDx=0;entryDy=0;" edge="1" parent="1" source="UTjn_2qCCi6-IETB0lyl-43" target="UTjn_2qCCi6-IETB0lyl-63">
          <mxGeometry width="50" height="50" relative="1" as="geometry">
            <mxPoint x="460" y="1580" as="sourcePoint" />
            <mxPoint x="510" y="1530" as="targetPoint" />
          </mxGeometry>
        </mxCell>
        <mxCell id="UTjn_2qCCi6-IETB0lyl-65" value="&lt;font style=&quot;font-size: 18px&quot;&gt;N&lt;/font&gt;" style="text;html=1;strokeColor=none;fillColor=none;align=center;verticalAlign=middle;whiteSpace=wrap;rounded=0;" vertex="1" parent="1">
          <mxGeometry x="410" y="1560" width="40" height="20" as="geometry" />
        </mxCell>
        <mxCell id="UTjn_2qCCi6-IETB0lyl-66" value="Display &amp;gt; 0.5s" style="rhombus;whiteSpace=wrap;html=1;" vertex="1" parent="1">
          <mxGeometry x="370" y="1720" width="80" height="80" as="geometry" />
        </mxCell>
        <mxCell id="UTjn_2qCCi6-IETB0lyl-67" value="" style="endArrow=classic;html=1;exitX=0.5;exitY=1;exitDx=0;exitDy=0;entryX=0.5;entryY=0;entryDx=0;entryDy=0;" edge="1" parent="1" source="UTjn_2qCCi6-IETB0lyl-63" target="UTjn_2qCCi6-IETB0lyl-66">
          <mxGeometry width="50" height="50" relative="1" as="geometry">
            <mxPoint x="490" y="1710" as="sourcePoint" />
            <mxPoint x="540" y="1660" as="targetPoint" />
          </mxGeometry>
        </mxCell>
        <mxCell id="UTjn_2qCCi6-IETB0lyl-68" value="" style="endArrow=classic;html=1;entryX=1;entryY=0.5;entryDx=0;entryDy=0;exitX=1;exitY=0.5;exitDx=0;exitDy=0;" edge="1" parent="1" source="UTjn_2qCCi6-IETB0lyl-66" target="UTjn_2qCCi6-IETB0lyl-63">
          <mxGeometry width="50" height="50" relative="1" as="geometry">
            <mxPoint x="490" y="1760" as="sourcePoint" />
            <mxPoint x="540" y="1710" as="targetPoint" />
            <Array as="points">
              <mxPoint x="520" y="1760" />
              <mxPoint x="520" y="1630" />
            </Array>
          </mxGeometry>
        </mxCell>
        <mxCell id="UTjn_2qCCi6-IETB0lyl-69" value="&lt;font style=&quot;font-size: 18px&quot;&gt;Y&lt;/font&gt;" style="text;html=1;strokeColor=none;fillColor=none;align=center;verticalAlign=middle;whiteSpace=wrap;rounded=0;" vertex="1" parent="1">
          <mxGeometry x="465" y="1740" width="40" height="20" as="geometry" />
        </mxCell>
        <mxCell id="UTjn_2qCCi6-IETB0lyl-70" value="" style="endArrow=classic;html=1;entryX=0;entryY=0.5;entryDx=0;entryDy=0;exitX=0;exitY=0.5;exitDx=0;exitDy=0;" edge="1" parent="1" source="UTjn_2qCCi6-IETB0lyl-66" target="UTjn_2qCCi6-IETB0lyl-43">
          <mxGeometry width="50" height="50" relative="1" as="geometry">
            <mxPoint x="260" y="1540" as="sourcePoint" />
            <mxPoint x="310" y="1490" as="targetPoint" />
            <Array as="points">
              <mxPoint x="280" y="1760" />
              <mxPoint x="280" y="1500" />
            </Array>
          </mxGeometry>
        </mxCell>
        <mxCell id="UTjn_2qCCi6-IETB0lyl-71" value="&lt;font style=&quot;font-size: 18px&quot;&gt;N&lt;/font&gt;" style="text;html=1;strokeColor=none;fillColor=none;align=center;verticalAlign=middle;whiteSpace=wrap;rounded=0;" vertex="1" parent="1">
          <mxGeometry x="310" y="1740" width="40" height="20" as="geometry" />
        </mxCell>
        <mxCell id="UTjn_2qCCi6-IETB0lyl-73" value="" style="endArrow=classic;html=1;exitX=0.5;exitY=1;exitDx=0;exitDy=0;entryX=1;entryY=0.5;entryDx=0;entryDy=0;" edge="1" parent="1" source="UTjn_2qCCi6-IETB0lyl-61" target="UTjn_2qCCi6-IETB0lyl-30">
          <mxGeometry width="50" height="50" relative="1" as="geometry">
            <mxPoint x="590" y="1240" as="sourcePoint" />
            <mxPoint x="620" y="960" as="targetPoint" />
            <Array as="points">
              <mxPoint x="620" y="950" />
            </Array>
          </mxGeometry>
        </mxCell>
      </root>
    </mxGraphModel>
  </diagram>
</mxfile>
